
<svg version="1.1" xmlns="http://www.w3.org/2000/svg" width="912" height="912" viewBox="0 0 912 912" preserveAspectRatio="xMidYMid meet">
<path d="M0 0 C21.45 0 42.9 0 65 0 C65 23.1 65 46.2 65 70 C92.06 70 119.12 70 147 70 C147 89.8 147 109.6 147 130 C119.94 130 92.88 130 65 130 C65 175.21 65 220.42 65 267 C43.55 267 22.1 267 0 267 C0 221.79 0 176.58 0 130 C-25.74 130 -51.48 130 -78 130 C-78 110.2 -78 90.4 -78 70 C-52.26 70 -26.52 70 0 70 C0 46.9 0 23.8 0 0 Z " fill="#FFFFFF" transform="translate(424,13)" />
<path d="M0 0 C14.85 0 29.7 0 45 0 C45 24.75 45 49.5 45 75 C73.05 75 101.1 75 130 75 C130 50.25 130 25.5 130 0 C144.85 0 159.7 0 175 0 C175 63.03 175 126.06 175 191 C160.15 191 145.3 191 130 191 C130 165.26 130 139.52 130 113 C101.95 113 73.9 113 45 113 C45 138.74 45 164.48 45 191 C30.15 191 15.3 191 0 191 C0 127.97 0 64.94 0 0 Z " fill="#FFFFFF" transform="translate(711,452)" />
<path d="M0 0 C1.41225046 -0.0928726 2.82908934 -0.11746772 4.24438477 -0.11352539 C5.59567223 -0.11341209 5.59567223 -0.11341209 6.97425842 -0.11329651 C7.95341721 -0.10813522 8.93257599 -0.10297394 9.94140625 -0.09765625 C10.93881332 -0.0962413 11.9362204 -0.09482635 12.96385193 -0.09336853 C16.16343124 -0.08775114 19.36294169 -0.07519571 22.5625 -0.0625 C24.72591045 -0.05748724 26.88932199 -0.05292395 29.05273438 -0.04882812 C34.36851325 -0.03777607 39.68425171 -0.02102104 45 0 C53.39597503 18.25652127 61.72353146 36.54002244 69.86083984 54.91345215 C75.19715381 66.96207366 80.58336806 78.98727789 86 91 C92.02950227 104.37409109 98.0219221 117.76376252 103.96438599 131.17675781 C107.93242085 140.1325151 111.92895883 149.07458762 115.96484375 158 C116.38045563 158.91990723 116.7960675 159.83981445 117.22427368 160.78759766 C119.25402595 165.27959682 121.28721102 169.76998571 123.32617188 174.2578125 C124.06003083 175.88014727 124.79376147 177.5025401 125.52734375 179.125 C126.03393776 180.23488281 126.03393776 180.23488281 126.55076599 181.3671875 C128.00392505 184.58914336 129.13911946 187.55647784 130 191 C114.16 191 98.32 191 82 191 C79.545625 185.163125 77.09125 179.32625 74.5625 173.3125 C73.78849854 171.47856689 73.01449707 169.64463379 72.21704102 167.75512695 C71.60396113 166.29133258 70.99122636 164.8273936 70.37890625 163.36328125 C70.06014526 162.6115564 69.74138428 161.85983154 69.41296387 161.08532715 C68.95633362 159.98988586 68.95633362 159.98988586 68.49047852 158.87231445 C68.22622574 158.24388138 67.96197296 157.6154483 67.68971252 156.9679718 C67 155 67 155 66 150 C36.96 150 7.92 150 -22 150 C-22.99 152.97 -23.98 155.94 -25 159 C-26.00815445 161.55783928 -27.0314648 164.09410762 -28.1015625 166.625 C-28.38349457 167.29797119 -28.66542664 167.97094238 -28.9559021 168.66430664 C-29.54420475 170.06642423 -30.13410883 171.46787093 -30.72558594 172.86865234 C-31.63398059 175.02128135 -32.53606159 177.17648127 -33.4375 179.33203125 C-34.01265285 180.70067553 -34.58816045 182.0691708 -35.1640625 183.4375 C-35.43384918 184.08219238 -35.70363586 184.72688477 -35.9815979 185.39111328 C-37.88462217 189.88462217 -37.88462217 189.88462217 -39 191 C-40.44289787 191.09295815 -41.89029785 191.11746513 -43.33618164 191.11352539 C-44.71750023 191.11341209 -44.71750023 191.11341209 -46.12672424 191.11329651 C-47.12775681 191.10813522 -48.12878937 191.10297394 -49.16015625 191.09765625 C-50.17975937 191.0962413 -51.19936249 191.09482635 -52.24986267 191.09336853 C-55.52077107 191.08775097 -58.79161213 191.0751955 -62.0625 191.0625 C-64.27408756 191.05748726 -66.48567618 191.05292396 -68.69726562 191.04882812 C-74.13153357 191.03777584 -79.56576197 191.02102063 -85 191 C-83.07928476 184.86626669 -80.80232224 179.03382207 -78.11328125 173.19921875 C-77.73959412 172.37828735 -77.36590698 171.55735596 -76.980896 170.71154785 C-76.17929478 168.95154898 -75.37572379 167.19244613 -74.57034302 165.43417358 C-72.40711783 160.71047326 -70.25944668 155.97969793 -68.109375 151.25 C-67.67379776 150.2928862 -67.23822052 149.3357724 -66.78944397 148.34965515 C-62.83284561 139.64991997 -58.93527348 130.92481389 -55.0625 122.1875 C-54.4175724 120.7336379 -53.77263415 119.27978052 -53.12768555 117.82592773 C-51.79529905 114.8215544 -50.46360326 111.81687593 -49.13232422 108.81201172 C-45.13462126 99.78923838 -41.13082642 90.76916929 -37.125 81.75 C-36.70626617 80.80711121 -36.28753235 79.86422241 -35.85610962 78.89276123 C-28.9797452 63.41286695 -22.05279734 47.95619116 -15.08642578 32.51660156 C-14.56866074 31.36872665 -14.56866074 31.36872665 -14.04043579 30.19766235 C-13.36572542 28.70191137 -12.69074468 27.20628231 -12.01547241 25.71078491 C-10.24275212 21.77929829 -8.4849458 17.84172786 -6.74414062 13.89599609 C-6.37609314 13.06271286 -6.00804565 12.22942963 -5.62884521 11.37089539 C-4.92123598 9.76667974 -4.21562671 8.16158005 -3.51226807 6.55549622 C-1.11024289 1.11024289 -1.11024289 1.11024289 0 0 Z M21 46 C18.45834041 52.1480423 15.91732598 58.296351 13.37670898 64.44482422 C12.51682288 66.52561122 11.65680222 68.60634262 10.79663086 70.68701172 C8.2842885 76.7642635 5.77547531 82.84295498 3.26983643 88.92297363 C1.97078579 92.07079093 0.66687601 95.21656936 -0.63720703 98.36230469 C-1.46794075 100.37427988 -2.29851362 102.38632151 -3.12890625 104.3984375 C-3.71441505 105.80580673 -3.71441505 105.80580673 -4.31175232 107.24160767 C-4.84301476 108.53232681 -4.84301476 108.53232681 -5.38500977 109.84912109 C-5.69801529 110.60518646 -6.01102081 111.36125183 -6.33351135 112.14022827 C-7.11245391 113.98452661 -7.11245391 113.98452661 -7 116 C12.14 116 31.28 116 51 116 C48.99976496 109.99929487 46.94090623 104.18547973 44.5234375 98.36328125 C44.19642853 97.56875549 43.86941956 96.77422974 43.53250122 95.95562744 C42.48276139 93.40676998 41.42891583 90.85963318 40.375 88.3125 C39.65268522 86.5605931 38.93068123 84.80855803 38.20898438 83.05639648 C36.78998058 79.61195288 35.36966068 76.16805717 33.94824219 72.72460938 C31.45246978 66.67588874 28.97416179 60.62009183 26.5 54.5625 C25.80210437 52.85546015 25.10419048 51.14842776 24.40625 49.44140625 C23.9421875 48.30574219 23.478125 47.17007813 23 46 C22.34 46 21.68 46 21 46 Z " fill="#FFFFFF" transform="translate(264,452)" />
<path d="M0 0 C47.52 0 95.04 0 144 0 C144 11.88 144 23.76 144 36 C111.33 36 78.66 36 45 36 C45 52.17 45 68.34 45 85 C74.04 85 103.08 85 133 85 C133 97.21 133 109.42 133 122 C103.96 122 74.92 122 45 122 C45 144.77 45 167.54 45 191 C30.15 191 15.3 191 0 191 C0 127.97 0 64.94 0 0 Z " fill="#FFFFFF" transform="translate(25,452)" />
<path d="M0 0 C55.11 0 110.22 0 167 0 C167 11.88 167 23.76 167 36 C146.87 36 126.74 36 106 36 C106 87.15 106 138.3 106 191 C90.82 191 75.64 191 60 191 C60 139.85 60 88.7 60 36 C40.2 36 20.4 36 0 36 C0 24.12 0 12.24 0 0 Z " fill="#FFFFFF" transform="translate(508,452)" />
<path d="M0 0 C0.66 0 1.32 0 2 0 C2.02505615 0.73114014 2.0501123 1.46228027 2.07592773 2.21557617 C2.19222641 5.53971417 2.31479928 8.86359241 2.4375 12.1875 C2.47681641 13.33798828 2.51613281 14.48847656 2.55664062 15.67382812 C2.59853516 16.78564453 2.64042969 17.89746094 2.68359375 19.04296875 C2.72025146 20.06414795 2.75690918 21.08532715 2.79467773 22.13745117 C2.98840063 24.83828463 3.40451953 27.36166128 4 30 C4.71542969 29.2265625 5.43085938 28.453125 6.16796875 27.65625 C17.71192272 15.4649715 30.4287583 7.79984881 46.97265625 4.38671875 C59.97554301 2.72570483 73.42253112 3.75899612 85.4375 9.25 C91.61178622 12.64636434 96.11355636 16.920869 99.375 23.1875 C102.12549849 29.05921634 102.50752702 34.57747624 102 41 C100.69148472 47.84137125 98.01480536 53.35894437 94 59 C93.443125 59.845625 92.88625 60.69125 92.3125 61.5625 C86.11582304 68.09413248 78.50123685 72.25365888 70 75 C69.3296875 75.22558594 68.659375 75.45117188 67.96875 75.68359375 C55.61452845 79.12852091 41.13434554 77.47701085 29 74 C19.5463177 70.64249445 11.71507661 64.04780358 5.875 55.9375 C5.25625 54.968125 4.6375 53.99875 4 53 C1.62689734 55.88561937 0.32911026 58.43569386 -0.7890625 61.9921875 C-1.24152344 63.42111328 -1.24152344 63.42111328 -1.703125 64.87890625 C-2.00734375 65.86761719 -2.3115625 66.85632813 -2.625 67.875 C-2.93695313 68.85597656 -3.24890625 69.83695313 -3.5703125 70.84765625 C-7.54663543 83.54789456 -8.85767865 97.4995891 -6.28125 110.67578125 C-4.18718978 116.78064229 -1.40016574 121.46440632 3.828125 125.36328125 C12.10324662 130.55821871 21.67295964 132.27616715 31.33544922 132.04663086 C45.50364414 131.33230838 57.90274861 127.29386878 69.5859375 119.2109375 C77.75316682 112.70228398 81.62887056 104.23179616 86 95 C86.39203613 94.17790039 86.78407227 93.35580078 87.18798828 92.50878906 C88.90967009 88.8975907 90.62832515 85.2849854 92.34033203 81.66918945 C96.32305309 73.3035598 100.46537474 65.02362667 104.68286133 56.77441406 C105.42803079 55.31531846 106.17060344 53.85489334 106.91040039 52.39306641 C115.80323532 34.84147162 115.80323532 34.84147162 120 31 C123.54468303 29.70359919 126.78208469 29.78686482 130.5 30.4375 C131.2425 30.7159375 131.2425 30.7159375 132 31 C130.57833745 33.92908278 129.01297434 36.72313633 127.33984375 39.515625 C117.32040324 56.38353142 108.09724193 73.62197784 99 91 C99.76803955 90.38503662 100.5360791 89.77007324 101.32739258 89.13647461 C121.854887 72.7268552 121.854887 72.7268552 133 72 C133.33 72.66 133.66 73.32 134 74 C132.99951172 76.28393555 132.99951172 76.28393555 131.4296875 79.13671875 C130.86459473 80.1824707 130.29950195 81.22822266 129.71728516 82.30566406 C129.10933105 83.42166992 128.50137695 84.53767578 127.875 85.6875 C120.48270484 99.27482872 120.48270484 99.27482872 116 114 C116.31498098 116.78510095 116.31498098 116.78510095 117 119 C120.93483814 117.70212145 122.95077928 116.36066019 125.44140625 113.05859375 C129.17399984 108.00944564 132.06131486 102.62949585 134.9375 97.0625 C140.93892905 85.8083036 146.39943402 76.22310736 158 70 C161.61651947 68.30245004 164.26781987 67.85967221 168.1875 68.1875 C172 69 172 69 173.70703125 70.2890625 C175 72 175 72 175.46875 73.98046875 C175.52959775 78.27784113 175.12390919 81.4352466 172.9375 85.1875 C168.52714102 91.40153521 163.30615335 95.29385429 156.2890625 98.1875 C152.89947025 99.39063172 149.51351768 100.23341432 146 101 C145.1269855 104.04146988 144.80784416 106.83785259 144.75 110 C144.72421875 110.845625 144.6984375 111.69125 144.671875 112.5625 C145.06362479 115.47264128 146.08421954 116.8220601 148 119 C152.23752059 118.7077572 155.23502773 118.3746803 159.0625 116.5 C170.29739373 106.93838832 174.58949744 93.39573231 179.18359375 79.87353516 C193.13702982 39.49198782 193.13702982 39.49198782 205.75390625 29.62890625 C208.36012352 28.00213133 210.71722972 27.04498618 213.75 26.5625 C216 27 216 27 217.609375 28.21875 C219 30 219 30 219.46875 32.27734375 C219.56182699 40.20052258 217.49626199 45.9582329 214 53 C213.69416992 53.63711914 213.38833984 54.27423828 213.07324219 54.93066406 C206.86986494 67.78533799 199.33375826 80.6227651 188.5 90.125 C184.17161203 94.19133525 182.92709809 98.97878312 181.5546875 104.64453125 C180.84475002 108.93915304 180.81524829 111.81387731 182 116 C183.39493544 117.98842741 183.39493544 117.98842741 185 119 C188.48796685 118.10772941 190.80984926 117.15393155 193.625 114.875 C195.96952496 112.03689084 197.36999089 109.46706774 198.91015625 106.1640625 C200.07669181 103.84771591 201.41669719 101.76889453 202.875 99.625 C206.95344601 93.61948825 210.78930885 87.56754468 213.9453125 81.01953125 C214.28578613 80.31578369 214.62625977 79.61203613 214.97705078 78.88696289 C215.64103451 77.49988663 216.2937703 76.10734865 216.93310547 74.70874023 C219.2619073 69.82719011 221.85301408 66.51349256 226 63 C228.44921875 62.125 228.44921875 62.125 230.6875 62 C231.43386719 61.938125 232.18023438 61.87625 232.94921875 61.8125 C235 62 235 62 238 64 C238 64.99 238 65.98 238 67 C236.9275 66.9175 235.855 66.835 234.75 66.75 C231.09113717 66.73372179 231.09113717 66.73372179 228.5625 68.3125 C226.45316814 71.94055079 226.39744027 74.75647909 226.53125 78.91015625 C227.2149047 83.41658014 228.88757929 87.26088903 230.80859375 91.37109375 C233.13384615 96.50189659 233.66973923 101.41272344 233 107 C231.35280922 111.85622565 228.91567211 115.64370962 225 119 C228.09288675 118.3965099 230.39621392 117.52963692 232.78125 115.4375 C237.37079509 110.44536324 240.18291709 105.11571846 243 99 C252.70324756 78.2342951 252.70324756 78.2342951 262.9375 71.5625 C267.44433396 69.04880993 270.83630502 68 276 68 C279.21615293 68.90891278 280.64040128 69.64040128 283 72 C283.75694384 75.84049399 283.59825848 79.52304938 282.125 83.16015625 C278.34958777 89.6056791 273.30628433 94.09284107 266.5625 97.25 C262.45020854 98.94579029 258.34170857 100.05271813 254 101 C253.1269855 104.04146988 252.80784416 106.83785259 252.75 110 C252.72421875 110.845625 252.6984375 111.69125 252.671875 112.5625 C253.06362479 115.47264128 254.08421954 116.8220601 256 119 C260.23752059 118.7077572 263.23502773 118.3746803 267.0625 116.5 C274.97064862 109.76966075 279.35242099 100.91478795 283.81640625 91.72851562 C288.38153332 82.63153501 293.63060858 76.17104545 302.58203125 71.1875 C308.02678248 68.51350263 312.95445786 67.46021945 319 68 C323.00373453 69.40130709 326.28905819 70.65118953 329 74 C328.67 75.65 328.34 77.3 328 79 C325 78 325 78 323.25 75.875 C322.13625 74.946875 322.13625 74.946875 321 74 C317.51080305 73.86580012 315.10517703 74.37543102 312.05078125 76.1015625 C301.58374578 83.46344599 293.96687846 94.2906294 289 106 C288.15223432 109.42044074 287.81166046 112.48935091 288 116 C288 116.66 288 117.32 288 118 C292.31562577 117.20733404 295.20102854 116.20025224 298.4375 113.1875 C304.04588168 107.13998329 307.86915443 99.70452393 311.95703125 92.59765625 C312.56933594 91.53417969 313.18164062 90.47070312 313.8125 89.375 C314.35519531 88.41335938 314.89789062 87.45171875 315.45703125 86.4609375 C317.98333614 82.43164109 317.98333614 82.43164109 320 81 C322.69921875 80.70703125 322.69921875 80.70703125 325.6875 80.8125 C326.68136719 80.83957031 327.67523437 80.86664062 328.69921875 80.89453125 C329.45847656 80.92933594 330.21773437 80.96414063 331 81 C329.0039882 86.48903246 326.09622113 91.48854262 323.27734375 96.5859375 C320.20485661 102.26446158 317.6432093 107.83146495 317.875 114.4375 C317.936875 116.2009375 317.936875 116.2009375 318 118 C324.75471378 114.92967556 328.57446295 108.47929029 332.2265625 102.296875 C334.19650194 98.88923747 336.10939333 95.45219867 338 92 C338.99 92 339.98 92 341 92 C339.55225212 102.02286996 332.630829 111.58436274 326 119 C323.0803722 121.9196278 321.49673781 122.86694523 317.5 123.9375 C314 124 314 124 311.1875 122.9375 C309 121 309 121 307.6875 118.1875 C307.0030612 115.01419282 306.84595221 112.23500362 307 109 C306.56429688 109.59167969 306.12859375 110.18335938 305.6796875 110.79296875 C297.3963808 121.78358997 297.3963808 121.78358997 292.05859375 123.6953125 C289.88117139 124.14980294 288.20588697 124.29441121 286 124 C282.625 121.9375 282.625 121.9375 280 119 C278.625 115.6875 278.625 115.6875 278 113 C277.25556641 113.81404297 277.25556641 113.81404297 276.49609375 114.64453125 C272.33952459 119.0219428 268.97188573 122.38050556 263 124 C257.59584641 124.62416394 253.42275067 124.71137534 248.5 122.25 C245.24016524 119.31614872 243.38904724 117.16714171 242 113 C241.56429688 113.47050781 241.12859375 113.94101562 240.6796875 114.42578125 C237.07439762 118.19494794 234.03874558 121.32041814 229 123 C224.67074931 123.5861318 220.36308046 123.82568186 216 124 C215.05769531 124.06445312 214.11539063 124.12890625 213.14453125 124.1953125 C208.76750278 124.39396735 206.473991 124.24545963 202.5 122.1875 C200 120 200 120 198 117 C197.13375 117.78375 196.2675 118.5675 195.375 119.375 C192.33679057 121.86209237 189.92752807 123.24470614 186 124 C182.53750506 124.0934324 179.35679625 123.8809431 176 123 C173.4375 120.875 173.4375 120.875 172 118 C171.25 114.1875 171.25 114.1875 171 111 C170.34644531 111.79664063 170.34644531 111.79664063 169.6796875 112.609375 C165.32169092 117.77860038 161.55089302 121.81636899 155 124 C149.6767039 124.50976619 145.34105196 124.67052598 140.5 122.25 C136.63799755 118.77419779 134.86945821 115.8083099 133 111 C132.56429687 111.60328125 132.12859375 112.2065625 131.6796875 112.828125 C125.10454501 121.6519093 125.10454501 121.6519093 120 124 C116.85947412 124.58013267 114.13171105 124.6574863 111 124 C108 121.9375 108 121.9375 106 119 C104.30683822 114.21930792 105.1162578 110.79188539 106.4375 105.9375 C108.93158835 98.35829159 112.8289981 91.7525686 117 85 C105.45657045 89.62016346 98.87057343 98.07957162 92.15478516 108.1953125 C89.76571078 111.92893571 87.59103257 115.77864284 85.47265625 119.671875 C84 122 84 122 81 124 C78.80859375 124.4140625 78.80859375 124.4140625 76.4375 124.625 C75.65246094 124.69976563 74.86742187 124.77453125 74.05859375 124.8515625 C72 125 72 125 70 125 C68.53823866 126.0288665 67.10547082 127.09907395 65.6875 128.1875 C55.21961212 135.64945759 43.09747552 138.92935396 30.375 139.375 C19.08059713 139.19024968 7.3304642 136.59533852 -2 130 C-2.60972656 129.58234375 -3.21945312 129.1646875 -3.84765625 128.734375 C-10.53690156 123.61820496 -15.02577332 116.27867472 -17.67578125 108.36328125 C-19.27366694 102.70476196 -19.49819437 97.29118795 -19.4375 91.4375 C-19.42847656 90.3868335 -19.41945313 89.33616699 -19.41015625 88.25366211 C-19.06645819 72.61659369 -14.96612546 58.51591841 -7 45 C-6.07563806 43.81824131 -5.14208589 42.64361013 -4.19921875 41.4765625 C-2.89786492 39.79765747 -2.89786492 39.79765747 -2 38 C-1.8625414 34.2881861 -1.8625414 34.2881861 -2.75 30.5 C-4.45637488 20.5539382 -4.69380804 10.57548699 -1 1 C-0.67 0.67 -0.34 0.34 0 0 Z M23.9375 25.5625 C19.574705 29.33140668 15.77843554 33.30347488 12.1875 37.8125 C11.74849365 38.35140869 11.3094873 38.89031738 10.85717773 39.44555664 C9.48537971 41.18680028 9.48537971 41.18680028 8 44 C8.14053964 48.70105108 10.57969918 51.9653024 13.19921875 55.72265625 C18.71394129 62.69680644 25.28949366 67.01671037 33.609375 69.90625 C44.83180317 73.18198579 57.01359313 73.32224103 68.2578125 70.03125 C77.06932137 66.71752017 83.44217889 61.57301259 89 54 C92.70756953 48.00340929 94.41733527 42.36365375 94.26953125 35.2421875 C93.62445086 29.87586654 91.765349 25.09211789 88.26953125 20.94921875 C82.49612908 15.56762431 75.79464157 12.23559503 68 11 C51.01301883 9.69165928 37.16976456 15.14884281 23.9375 25.5625 Z M213 35 C207.52422337 40.70509658 203.89784496 47.49928291 200.5 54.5625 C200.03368164 55.51543945 199.56736328 56.46837891 199.08691406 57.45019531 C196.22392293 63.34412392 193.42803971 69.2696478 190.75 75.25 C190.45029297 75.9107251 190.15058594 76.5714502 189.84179688 77.25219727 C189.16420986 78.80860799 188.57255799 80.401965 188 82 C188.33 82.66 188.66 83.32 189 84 C200.33739796 71.32879051 210.09806386 55.33978715 215 39 C215 37.68 215 36.36 215 35 C214.34 35 213.68 35 213 35 Z M164.17578125 74.07421875 C157.61869434 79.7515288 150.78127318 87.65618045 148 96 C153.67496155 95.57437788 157.61004288 93.46131235 162 90 C165.02765903 86.96069613 168.06978427 83.86043146 170 80 C170.04022391 77.6670134 170.04320247 75.33293334 170 73 C166.22163008 72.66171783 166.22163008 72.66171783 164.17578125 74.07421875 Z M272.17578125 74.07421875 C265.61869434 79.7515288 258.78127318 87.65618045 256 96 C261.67496155 95.57437788 265.61004288 93.46131235 270 90 C273.02765903 86.96069613 276.06978427 83.86043146 278 80 C278.04022391 77.6670134 278.04320247 75.33293334 278 73 C274.22163008 72.66171783 274.22163008 72.66171783 272.17578125 74.07421875 Z M220 77 C217.93243437 80.90352115 215.90059885 84.8245601 213.875 88.75 C213.28589844 89.86117187 212.69679688 90.97234375 212.08984375 92.1171875 C211.54199219 93.18710937 210.99414062 94.25703125 210.4296875 95.359375 C209.91647949 96.34389648 209.40327148 97.32841797 208.87451172 98.34277344 C208.58592285 99.2196582 208.29733398 100.09654297 208 101 C208.72127031 103.2214311 208.72127031 103.2214311 210 105 C210.35429907 106.49068052 210.6663652 107.99197408 210.9375 109.5 C211.65841109 113.00074425 212.46971408 115.35470108 215 118 C217.74673333 116.95813563 218.93257117 116.09240247 220.6875 113.6875 C224.75995879 105.34865581 222.96910947 95.36247435 222 86.4375 C221.90460938 85.52419922 221.80921875 84.61089844 221.7109375 83.66992188 C221.47808125 81.44614468 221.24104145 79.22290224 221 77 C220.67 77 220.34 77 220 77 Z M207 111 C206.67 111.33 206.34 111.66 206 112 C205.74994614 114.95817107 205.74994614 114.95817107 206 118 C206.66 118.66 207.32 119.32 208 120 C209.32 119.67 210.64 119.34 212 119 C211.54625 118.4225 211.0925 117.845 210.625 117.25 C209.15886484 115.2199667 208.05142216 113.26460157 207 111 Z " fill="#FFFFFF" transform="translate(379,721)" />
<path d="M0 0 C0.27972656 0.7734375 0.55945313 1.546875 0.84765625 2.34375 C4.10507071 10.80674319 7.80842057 16.62851219 14.875 22.3125 C30.46009371 30.72845061 50.2658218 29.22935995 67.3828125 27.421875 C85.22374053 25.14781239 102.94786709 21.56177611 120.62182617 18.26196289 C140.6329344 14.55094506 161.05497732 10.92707173 181.46484375 10.796875 C182.21675491 10.78986069 182.96866608 10.78284637 183.74336243 10.77561951 C186.14147069 10.75830615 188.53933164 10.7517721 190.9375 10.75 C191.75947876 10.74932526 192.58145752 10.74865051 193.42834473 10.74795532 C205.82770006 10.76411054 217.87984999 11.13292843 230 14 C230.71913574 14.16628906 231.43827148 14.33257812 232.17919922 14.50390625 C249.35008572 18.63501728 264.08366057 26.2553743 278 37 C278.87269531 37.56074219 279.74539063 38.12148438 280.64453125 38.69921875 C283.0287057 40.35686719 284.49662517 41.50804233 286 44 C286.63801191 48.7432525 286.47459705 53.24743786 286 58 C285.44054687 57.82984375 284.88109375 57.6596875 284.3046875 57.484375 C282.56408291 56.95827586 280.82167696 56.43812223 279.078125 55.921875 C277.02022702 55.30555022 274.96800134 54.66996997 272.921875 54.015625 C218.03449753 37.10719118 154.08802519 48.76751805 98.04443359 53.93017578 C78.11030492 55.76513311 58.34234553 57.23476102 38.3125 57.25 C37.38789978 57.25100708 36.46329956 57.25201416 35.51068115 57.25305176 C15.22450455 57.23812221 -5.98404038 57.04731483 -23.67578125 45.765625 C-28.77215463 41.8940943 -33.23187326 37.13200365 -36 31.3125 C-37.00353392 27.98829388 -37.07701619 25.44166085 -37 22 C-28.14873376 15.38484313 -18.62373548 9.86855984 -9.11865234 4.25976562 C-7.40604681 3.2414383 -5.71002838 2.19524706 -4.01953125 1.140625 C-2 0 -2 0 0 0 Z " fill="#0093CE" transform="translate(128,321)" />
<path d="M0 0 C3.78933166 1.39309253 7.04588279 3.1471663 10.45703125 5.30078125 C11.48763672 5.94853516 12.51824219 6.59628906 13.58007812 7.26367188 C15.18012695 8.2778418 15.18012695 8.2778418 16.8125 9.3125 C17.86759766 9.97701172 18.92269531 10.64152344 20.00976562 11.32617188 C22.06430304 12.62033843 24.11788707 13.91602003 26.17041016 15.21337891 C29.77267412 17.48787137 33.38512884 19.74561111 37 22 C36.58045124 28.43308101 34.53512882 33.60427707 31 39 C24.42492338 46.57850197 16.38040277 50.61370979 6.80078125 53.15625 C-3.33359304 55.68322845 -13.15539991 57.14308503 -23.609375 57.2734375 C-25.01115494 57.29209366 -25.01115494 57.29209366 -26.44125366 57.31112671 C-56.74201526 57.63195139 -86.58050293 55.51292947 -116.73144531 52.67578125 C-126.96514319 51.71631876 -137.20691145 50.85571221 -147.45013428 50.00500488 C-150.37619971 49.76035117 -153.30165687 49.50937607 -156.22705078 49.25683594 C-197.36866307 45.74336429 -241.68290728 42.70287537 -281.12890625 57.046875 C-284 58 -284 58 -287 58 C-287.69912893 53.49450247 -287.86174957 49.49305266 -287 45 C-284.02705681 40.78684698 -280.19376524 37.92000369 -276 35 C-275.4544043 34.60828613 -274.90880859 34.21657227 -274.34667969 33.81298828 C-250.28202477 16.71961155 -222.62535048 10.8016542 -193.4375 10.5625 C-162.37712865 10.66040428 -132.01750836 16.33400393 -101.59155273 22.02661133 C-89.23211374 24.3221142 -76.90459766 26.42225249 -64.41015625 27.83984375 C-63.34864853 27.96210831 -62.28714081 28.08437286 -61.19346619 28.21034241 C-46.55960074 29.74858361 -31.21777639 29.96476556 -17.5 23.875 C-11.11814153 20.26040117 -6.63443376 15.30863477 -3.39453125 8.75 C-2.17645348 5.85663881 -1.04203402 2.96077936 0 0 Z " fill="#0093CE" transform="translate(786,321)" />
<path d="M0 0 C14.85 0 29.7 0 45 0 C45 63.03 45 126.06 45 191 C30.15 191 15.3 191 0 191 C0 127.97 0 64.94 0 0 Z " fill="#FFFFFF" transform="translate(426,452)" />
<path d="M0 0 C21.45 0 42.9 0 65 0 C65 36.63 65 73.26 65 111 C61.2386026 109.49544104 57.90329681 107.95151342 54.3671875 106.03125 C53.31402344 105.46019531 52.26085937 104.88914062 51.17578125 104.30078125 C50.08652344 103.70652344 48.99726563 103.11226563 47.875 102.5 C46.77800781 101.90574219 45.68101562 101.31148438 44.55078125 100.69921875 C36.41728094 96.27818729 36.41728094 96.27818729 33 94 C29.07751875 94.32580084 26.38350457 95.75307132 23.09375 97.8359375 C22.18496094 98.40570313 21.27617187 98.97546875 20.33984375 99.5625 C19.40269531 100.160625 18.46554687 100.75875 17.5 101.375 C15.63549905 102.54960995 13.77091829 103.72409322 11.90625 104.8984375 C11.08447266 105.42099121 10.26269531 105.94354492 9.41601562 106.48193359 C8.61873047 106.98289551 7.82144531 107.48385742 7 108 C6.11505859 108.55896973 5.23011719 109.11793945 4.31835938 109.69384766 C2 111 2 111 0 111 C0 74.37 0 37.74 0 0 Z " fill="#E2E8F0" transform="translate(424,296)" />
<path d="M0 0 C3.02417624 1.51208812 5.3655836 2.92918742 8.0625 4.875 C20.44118965 13.14090025 34.53856869 14.18202393 49.06933594 14.09814453 C54.99748805 13.95012483 60.85418629 13.42724838 66.75 12.8125 C68.03841797 12.68375488 69.32683594 12.55500977 70.65429688 12.42236328 C84.4426847 11.02608639 98.20593784 9.38082151 111.96386719 7.71411133 C149.81313183 3.16408354 189.89618549 1.80728753 224.6796875 19.87890625 C232.04749633 23.85239023 238.72746989 28.44257919 245 34 C245.93585938 34.78375 246.87171875 35.5675 247.8359375 36.375 C250.54362261 38.80205668 252.87723386 41.04581712 255 44 C255.76682987 47.50824667 255.67295405 50.48568439 255 54 C251.62478335 52.46152915 248.83505173 50.47651122 245.875 48.25 C223.25179088 31.71535903 196.11301146 24.54500475 168.29296875 23.796875 C138.16008548 23.40367611 109.08306864 28.26519921 79.54370117 33.54638672 C7.91245347 46.32024776 7.91245347 46.32024776 -10.39453125 37.8984375 C-15.43769181 34.99791844 -19.37907732 31.3202771 -21.96875 26.015625 C-23.62263788 21.94216042 -24 19.59044595 -24 15 C-12.12 7.575 -12.12 7.575 0 0 Z " fill="#00A5E2" transform="translate(159,300)" />
<path d="M0 0 C4.11429487 0.57386146 6.82978955 1.90705637 10.30078125 4.16015625 C11.27724609 4.78857422 12.25371094 5.41699219 13.25976562 6.06445312 C14.26716797 6.72380859 15.27457031 7.38316406 16.3125 8.0625 C17.33923828 8.72572266 18.36597656 9.38894531 19.42382812 10.07226562 C21.95381681 11.70793273 24.47890242 13.35067493 27 15 C25.46978327 22.80630784 23.44531541 28.45624701 17.8125 34.25 C4.66178235 42.43266876 -10.0525695 41.71342458 -25 41 C-39.2580506 39.89901863 -53.3626953 37.13565225 -67.421875 34.61328125 C-69.23449829 34.28810516 -69.23449829 34.28810516 -71.08374023 33.95635986 C-77.1793413 32.8595246 -83.27215643 31.74966963 -89.36132812 30.61767578 C-109.74025932 26.8609774 -130.26043669 23.72137611 -151 23 C-152.1653125 22.95875 -153.330625 22.9175 -154.53125 22.875 C-177.51085458 22.4753547 -200.89233539 25.53990267 -222 35 C-222.98871094 35.43957031 -223.97742188 35.87914062 -224.99609375 36.33203125 C-233.97403512 40.56999317 -242.09628201 46.04165899 -249.81640625 52.2734375 C-250.53699219 52.84320313 -251.25757813 53.41296875 -252 54 C-252.33 54 -252.66 54 -253 54 C-253.49984414 50.22339986 -253.61572547 46.76944129 -253 43 C-250.92239982 39.6108764 -248.10736339 37.43511988 -245 35 C-244.05511719 34.20851563 -243.11023438 33.41703125 -242.13671875 32.6015625 C-222.18270571 16.22277564 -198.59122319 7.50029808 -173 5 C-169.97422851 4.82949546 -166.95193752 4.76707552 -163.921875 4.7265625 C-163.05395325 4.71417038 -162.18603149 4.70177826 -161.29180908 4.68901062 C-158.44449906 4.65647956 -155.59746596 4.63772461 -152.75 4.625 C-151.76580078 4.62043793 -150.78160156 4.61587585 -149.76757812 4.61117554 C-129.23765324 4.57750706 -109.19399731 6.69526917 -88.86572266 9.3671875 C-46.36120222 15.58792932 -46.36120222 15.58792932 -5.828125 4.71875 C-3.47873435 3.29094353 -1.78339693 2.05969787 0 0 Z " fill="#00A5E2" transform="translate(752,301)" />
<path d="M0 0 C2.79248047 1.49047852 2.79248047 1.49047852 5.6171875 3.37890625 C6.63554688 4.05244141 7.65390625 4.72597656 8.703125 5.41992188 C9.74984375 6.12697266 10.7965625 6.83402344 11.875 7.5625 C12.94492187 8.27341797 14.01484375 8.98433594 15.1171875 9.71679688 C17.75105109 11.4687865 20.37820703 13.23001988 23 15 C21.27685547 18.82324219 21.27685547 18.82324219 18.78515625 20.4140625 C17.88667969 20.81367188 16.98820313 21.21328125 16.0625 21.625 C15.18722656 22.02976562 14.31195312 22.43453125 13.41015625 22.8515625 C4.94163463 25.70350449 -3.62457805 26.35721277 -12.5078125 26.3046875 C-13.58209503 26.30081024 -14.65637756 26.29693298 -15.76321411 26.29293823 C-28.23069297 26.13068906 -40.51563319 24.66190685 -52.875 23.125 C-55.15348139 22.85149117 -57.43212775 22.5793531 -59.7109375 22.30859375 C-64.11496064 21.78433036 -68.51845192 21.25591226 -72.92163086 20.72460938 C-115.13473668 15.66415678 -158.0742998 13.62582006 -196.875 33.8125 C-204.97638087 38.20160805 -212.8003714 43.69043348 -219.23828125 50.296875 C-219.81964844 50.85890625 -220.40101563 51.4209375 -221 52 C-221.66 52 -222.32 52 -223 52 C-223.38058516 48.92000673 -223.46884017 46.07487686 -223 43 C-221.41711689 40.20018076 -219.30747801 38.21232809 -216.9375 36.0625 C-216.3084375 35.46622803 -215.679375 34.86995605 -215.03125 34.25561523 C-196.20423493 16.90353835 -172.40753616 7.19321148 -147.26660156 3.44311523 C-136.3622443 2.00507679 -125.6133387 1.68530901 -114.625 1.75 C-113.74414734 1.75177246 -112.86329468 1.75354492 -111.95574951 1.75537109 C-99.48207683 1.78448183 -87.07182816 2.19956033 -74.625 3 C-41.33768952 5.88333099 -41.33768952 5.88333099 -8.86328125 -0.1640625 C-5.39168856 -1.17759706 -3.50672496 -0.84395666 0 0 Z " fill="#16BEEB" transform="translate(722,280)" />
<path d="M0 0 C1.46577755 0.29890366 2.92344202 0.63830031 4.375 1 C23.15486272 5.2243212 40.97818632 5.47376359 60.11083984 4.14413452 C75.09859758 3.13427405 90.07852031 2.75675579 105.09869385 2.70043945 C107.24955874 2.69194482 109.40041085 2.67843586 111.5512085 2.65942383 C129.059207 2.52071398 146.25392521 3.65172645 163.125 8.6875 C163.98859131 8.94096191 164.85218262 9.19442383 165.74194336 9.45556641 C184.22097029 15.14273301 199.58901115 25.62925178 213.375 39 C214.14328125 39.66 214.9115625 40.32 215.703125 41 C217.375 43 217.375 43 217.765625 45.578125 C217.71921875 46.45984375 217.6728125 47.3415625 217.625 48.25 C217.58890625 49.14203125 217.5528125 50.0340625 217.515625 50.953125 C217.46921875 51.62859375 217.4228125 52.3040625 217.375 53 C216.24821838 52.16907724 215.12373979 51.33503194 214 50.5 C213.25621094 49.94828125 212.51242187 49.3965625 211.74609375 48.828125 C210.22348732 47.65418792 208.73224102 46.43773607 207.28515625 45.171875 C187.17504589 27.78316797 160.35070154 21.02514884 134.5 18.25 C132.4598959 18.13457685 130.41757326 18.05693584 128.375 18 C127.61751465 17.97421875 126.8600293 17.9484375 126.07958984 17.921875 C98.51639104 17.09337381 71.07375698 20.90398174 43.77587891 24.28588867 C-1.93259285 29.92904321 -1.93259285 29.92904321 -21.40625 22.29296875 C-24.29138446 20.6116668 -26.34941055 18.42382327 -28.625 16 C-25.95903214 14.26975417 -23.29209476 12.54100816 -20.625 10.8125 C-19.88121094 10.32974609 -19.13742188 9.84699219 -18.37109375 9.34960938 C-16.87103824 8.37783428 -15.36890831 7.409254 -13.86474609 6.44384766 C-12.37080217 5.48077982 -10.88407248 4.50642854 -9.40478516 3.52099609 C-8.70659668 3.06418457 -8.0084082 2.60737305 -7.2890625 2.13671875 C-6.6698291 1.72510498 -6.0505957 1.31349121 -5.41259766 0.8894043 C-3.625 0 -3.625 0 0 0 Z " fill="#16BEEB" transform="translate(196.625,279)" />
<path d="M0 0 C-1.78255749 2.70948738 -3.56627489 5.40290893 -5.47265625 8.02734375 C-16.29640754 22.99636149 -24.68488415 39.55448828 -33 56 C-33.50225098 56.98838867 -34.00450195 57.97677734 -34.52197266 58.99511719 C-35.9701803 61.86320106 -37.3955223 64.74137943 -38.8125 67.625 C-39.25142578 68.49543945 -39.69035156 69.36587891 -40.14257812 70.26269531 C-40.53509766 71.07577148 -40.92761719 71.88884766 -41.33203125 72.7265625 C-41.67983643 73.43377441 -42.0276416 74.14098633 -42.38598633 74.86962891 C-43.38079261 78.32119139 -42.27235253 81.11238476 -41.24609375 84.45703125 C-40.97925781 85.23433594 -40.71242188 86.01164063 -40.4375 86.8125 C-40.16808594 87.60269531 -39.89867187 88.39289063 -39.62109375 89.20703125 C-39.41613281 89.79871094 -39.21117187 90.39039063 -39 91 C-33.02180426 88.66704557 -29.64190867 85.12646181 -26 80 C-22.79668271 74.78177771 -19.88839618 69.39691259 -17 64 C-16.01 64 -15.02 64 -14 64 C-14.52898394 69.39059829 -16.42010833 73.25982645 -19.0625 77.875 C-19.4651709 78.58027832 -19.8678418 79.28555664 -20.28271484 80.01220703 C-23.45919544 85.40437319 -26.80068321 90.35837326 -32 94 C-34.41576331 95.07469318 -36.36863918 95.56143986 -39 96 C-38.94199219 96.79019531 -38.88398438 97.58039063 -38.82421875 98.39453125 C-38.25885902 112.5285245 -41.48773936 126.61446039 -49.16015625 138.6015625 C-52.1852906 142.5451559 -55.50587511 145.75293755 -60 148 C-64.4712675 148.47516954 -68.55179076 148.72410462 -72.625 146.6875 C-74.44349395 143.13317091 -74.66607503 140.53235253 -74.5078125 136.5546875 C-72.31415049 121.19905346 -65.68529313 106.3239853 -60 92 C-60.91676514 92.48678223 -60.91676514 92.48678223 -61.85205078 92.98339844 C-65.68945488 94.79960106 -69.84054386 94.36312712 -74 94 C-75.0725 93.608125 -76.145 93.21625 -77.25 92.8125 C-78.61125 92.4103125 -78.61125 92.4103125 -80 92 C-83.04990627 93.27487535 -83.04990627 93.27487535 -86 95 C-89.68812683 96.02012019 -91.89834855 96.01895197 -95.6875 95.3125 C-99 94 -99 94 -100.875 92.0625 C-103.83780855 86.63068433 -103.59711268 81.019729 -103 75 C-100.43927742 64.91266759 -95.32438838 56.00364209 -87.73046875 48.8671875 C-83.45264781 45.38371491 -79.31906541 42.51973297 -74 41 C-70.82293427 40.82410709 -68.04393322 41.05375859 -65 42 C-61.75955542 44.56535196 -60.30439833 46.086805 -59 50 C-58.04864207 59.23285075 -60.13763009 66.57326034 -64.42578125 74.703125 C-67.22117416 79.52824765 -70.28398153 83.84680288 -74 88 C-72.26857146 89.15922128 -72.26857146 89.15922128 -70 90 C-67.23269366 89.79245202 -65.30192719 89.14665035 -62.8125 87.9375 C-60.45518029 85.41760652 -60.18565539 83.1863569 -59.4921875 79.87109375 C-59 78 -59 78 -57.5625 76.0625 C-56 75 -56 75 -53 74 C-51.68155945 71.76017748 -50.54831867 69.5824362 -49.4453125 67.23828125 C-49.10202911 66.53028885 -48.75874573 65.82229645 -48.40505981 65.09284973 C-47.65682326 63.54767466 -46.91298617 62.00036344 -46.17297363 60.45123291 C-44.98444629 57.96749649 -43.78122052 55.49141951 -42.57324219 53.01708984 C-39.55776701 46.83912752 -36.5542913 40.65535795 -33.55810547 34.46801758 C-18.41503964 3.20973153 -18.41503964 3.20973153 -12.875 -0.375 C-8.51057513 -1.32378801 -4.38671113 -0.63032354 0 0 Z M-73.75 48.4375 C-83.07204525 55.24705447 -87.98808544 64.4632134 -92 75 C-93.120725 78.68238215 -94 82.13807502 -94 86 C-92.85052162 89.12924651 -92.85052162 89.12924651 -91 91 C-86.17805357 90.67495741 -86.17805357 90.67495741 -82.0625 88.4375 C-81.711875 87.963125 -81.36125 87.48875 -81 87 C-81.33 86.34 -81.66 85.68 -82 85 C-82.12005453 83.50350638 -82.17531451 82.00125207 -82.1875 80.5 C-82.20167969 79.7059375 -82.21585938 78.911875 -82.23046875 78.09375 C-82.15441406 77.4028125 -82.07835937 76.711875 -82 76 C-81.34 75.34 -80.68 74.68 -80 74 C-76.31504012 73.61210949 -74.21223234 74.2776967 -71 76 C-70.01888025 73.8967433 -69.04016866 71.79236311 -68.0625 69.6875 C-67.51722656 68.51574219 -66.97195313 67.34398437 -66.41015625 66.13671875 C-64.65206167 62.22605407 -63.82601511 59.25684612 -63.75 55 C-63.72421875 54.13375 -63.6984375 53.2675 -63.671875 52.375 C-63.8216517 49.9626502 -63.8216517 49.9626502 -65.265625 48.1875 C-68.35758218 46.07048428 -70.62130473 46.80204565 -73.75 48.4375 Z M-47 84 C-48.14209817 85.78228936 -48.14209817 85.78228936 -49 88 C-48.70194993 90.19747131 -48.70194993 90.19747131 -48 92 C-46.68 92 -45.36 92 -44 92 C-44.26224651 89.98944339 -44.60235737 87.98821313 -45 86 C-45.66 85.34 -46.32 84.68 -47 84 Z M-52 95 C-61.51449605 117.8421961 -61.51449605 117.8421961 -65 142 C-63.68 142.33 -62.36 142.66 -61 143 C-51.31398708 133.26591754 -46.90019275 122.34088663 -44 109 C-43.46288226 104.66725021 -43.14493988 100.36269053 -43 96 C-45.97 95.67 -48.94 95.34 -52 95 Z " fill="#FFFFFF" transform="translate(337,749)" />
<path d="M0 0 C6.27 0 12.54 0 19 0 C18.67 1.32 18.34 2.64 18 4 C17.01 4.33 16.02 4.66 15 5 C14.505 12.425 14.505 12.425 14 20 C21.26 20 28.52 20 36 20 C35.505 12.575 35.505 12.575 35 5 C33.35 4.34 31.7 3.68 30 3 C30 2.01 30 1.02 30 0 C36.27 0 42.54 0 49 0 C48.67 1.32 48.34 2.64 48 4 C46.68 4 45.36 4 44 4 C44 15.55 44 27.1 44 39 C45.98 39.66 47.96 40.32 50 41 C50 41.99 50 42.98 50 44 C43.4 44 36.8 44 30 44 C30 43.01 30 42.02 30 41 C32.475 40.505 32.475 40.505 35 40 C35.33 34.72 35.66 29.44 36 24 C28.74 24 21.48 24 14 24 C14 29.28 14 34.56 14 40 C15.98 40.33 17.96 40.66 20 41 C20 41.99 20 42.98 20 44 C13.4 44 6.8 44 0 44 C0 43.01 0 42.02 0 41 C0.804375 40.87625 1.60875 40.7525 2.4375 40.625 C3.283125 40.41875 4.12875 40.2125 5 40 C6.53297297 36.93405406 6.12131455 33.72888147 6.09765625 30.3671875 C6.09553383 29.23943405 6.09553383 29.23943405 6.09336853 28.08889771 C6.08776465 25.6842249 6.07521157 23.27964473 6.0625 20.875 C6.0574855 19.24609509 6.0529225 17.61718873 6.04882812 15.98828125 C6.03779397 11.99215173 6.02052679 7.99609158 6 4 C4.35 4 2.7 4 1 4 C0.67 2.68 0.34 1.36 0 0 Z " fill="#0093CE" transform="translate(770,683)" />
<path d="M0 0 C5.94 0 11.88 0 18 0 C17.67 1.32 17.34 2.64 17 4 C16.01 4.33 15.02 4.66 14 5 C13.505 12.425 13.505 12.425 13 20 C20.26 20 27.52 20 35 20 C34.505 12.575 34.505 12.575 34 5 C32.35 4.34 30.7 3.68 29 3 C29.33 2.01 29.66 1.02 30 0 C35.94 0 41.88 0 48 0 C47.67 1.32 47.34 2.64 47 4 C46.01 4.33 45.02 4.66 44 5 C42.87313996 8.38058012 42.8705921 10.96906121 42.8671875 14.53125 C42.86589844 15.81644531 42.86460937 17.10164062 42.86328125 18.42578125 C42.86537598 19.09432129 42.8674707 19.76286133 42.86962891 20.45166016 C42.87498057 22.49258865 42.86967604 24.53329709 42.86328125 26.57421875 C42.86457031 27.85941406 42.86585938 29.14460937 42.8671875 30.46875 C42.86887939 32.23895508 42.86887939 32.23895508 42.87060547 34.04492188 C42.86716025 37.05885516 42.86716025 37.05885516 44 40 C45.65 40.33 47.3 40.66 49 41 C49 41.99 49 42.98 49 44 C42.4 44 35.8 44 29 44 C29 43.01 29 42.02 29 41 C31.475 40.505 31.475 40.505 34 40 C34.33 34.72 34.66 29.44 35 24 C27.74 24 20.48 24 13 24 C13 29.28 13 34.56 13 40 C14.98 40.33 16.96 40.66 19 41 C19 41.99 19 42.98 19 44 C12.73 44 6.46 44 0 44 C0 43.01 0 42.02 0 41 C1.65 40.34 3.3 39.68 5 39 C5 27.45 5 15.9 5 4 C3.35 3.67 1.7 3.34 0 3 C0 2.01 0 1.02 0 0 Z " fill="#0093CE" transform="translate(527,683)" />
<path d="M0 0 C3.31232698 -0.08834684 6.62434435 -0.14083584 9.9375 -0.1875 C10.86369141 -0.21263672 11.78988281 -0.23777344 12.74414062 -0.26367188 C18.91735151 -0.32865304 24.38284821 0.27765231 30 3 C32.74247178 5.90868219 32.97655495 7.85698517 33.625 11.8125 C33.54880529 14.66980154 33.06603616 15.90357406 31.4296875 18.29296875 C29.68916231 20.28365039 27.90783313 22.17003761 26 24 C27.57676632 26.10937632 29.16097079 28.21239258 30.75 30.3125 C31.1934375 30.90740234 31.636875 31.50230469 32.09375 32.11523438 C34.46437774 35.23539882 36.62305737 37.90396664 40 40 C42.14733927 40.70514846 42.14733927 40.70514846 44 41 C44 42.32 44 43.64 44 45 C42.10342857 44.96672682 40.20747679 44.89707677 38.3125 44.8125 C37.25675781 44.77769531 36.20101562 44.74289062 35.11328125 44.70703125 C32 44 32 44 29.3515625 41.83984375 C26.16470046 37.99125786 23.70701921 33.83522742 21.16015625 29.546875 C20.44730469 28.70640625 19.73445312 27.8659375 19 27 C17.02 26.67 15.04 26.34 13 26 C13.33 30.62 13.66 35.24 14 40 C15.65 40.33 17.3 40.66 19 41 C19 41.99 19 42.98 19 44 C12.73 44 6.46 44 0 44 C0 43.01 0 42.02 0 41 C2.475 40.505 2.475 40.505 5 40 C5 28.45 5 16.9 5 5 C2.525 4.01 2.525 4.01 0 3 C0 2.01 0 1.02 0 0 Z M13 4 C13 9.94 13 15.88 13 22 C19.29542026 22.35992215 19.29542026 22.35992215 22.3125 21.25 C24.05982944 20.06506104 24.05982944 20.06506104 25.3125 18.375 C26.36070822 14.75391704 26.12591591 11.59115663 25 8 C23.00979883 5.34115399 23.00979883 5.34115399 20 4 C17.69 4 15.38 4 13 4 Z " fill="#0093CE" transform="translate(655,683)" />
<path d="M0 0 C3.31232698 -0.08834684 6.62434435 -0.14083584 9.9375 -0.1875 C10.86369141 -0.21263672 11.78988281 -0.23777344 12.74414062 -0.26367188 C18.82048821 -0.32763343 24.53830222 0.09976411 30 3 C32.40880309 6.61320464 32.34510428 8.55805235 32.26953125 12.76953125 C31.91300631 15.71990427 30.80452931 17.66914964 29 20 C29.969375 20.70125 30.93875 21.4025 31.9375 22.125 C34.28220096 24.09831807 34.95832399 24.88018148 36 27.875 C36 31.739753 35.49680858 34.42067512 34 38 C30.82716887 41.39946192 28.79500733 42.70710256 24.4375 44.3125 C16.1399811 46.00067083 7.30743944 45.30312775 -1 44 C-1 43.01 -1 42.02 -1 41 C0.98 41 2.96 41 5 41 C5 29.12 5 17.24 5 5 C2.525 4.01 2.525 4.01 0 3 C0 2.01 0 1.02 0 0 Z M13 4 C13 8.95 13 13.9 13 19 C18.38318713 19.32133742 18.38318713 19.32133742 23.5 18 C25.338822 15.88214887 25.338822 15.88214887 25.5625 12.0625 C25.50615562 9.95503399 25.50615562 9.95503399 25 8 C23.06873898 5.32161427 23.06873898 5.32161427 20 4 C17.69 4 15.38 4 13 4 Z M13 22 C13 27.61 13 33.22 13 39 C15.88020391 41.26470228 15.88020391 41.26470228 19.4375 41.3125 C22.86952795 41.18165557 22.86952795 41.18165557 25.375 40.0625 C27.60588466 37.23099255 27.92313889 34.77791662 28.16015625 31.22265625 C28.13456139 28.77480095 28.13456139 28.77480095 26.4375 26.0625 C23.63795355 23.693653 21.56886857 22.80117458 18 22 C16.35 22 14.7 22 13 22 Z " fill="#0093CE" transform="translate(78,683)" />
<path d="M0 0 C5.94 0 11.88 0 18 0 C17.67 1.32 17.34 2.64 17 4 C16.01 4.33 15.02 4.66 14 5 C13.9127747 9.39570794 13.85953131 13.79119271 13.8125 18.1875 C13.78736328 19.43337891 13.76222656 20.67925781 13.73632812 21.96289062 C13.72666016 23.16494141 13.71699219 24.36699219 13.70703125 25.60546875 C13.6913208 26.71043701 13.67561035 27.81540527 13.65942383 28.95385742 C14.04649098 32.41581935 14.92135651 34.22877938 17 37 C20.57897251 39.38598167 22.71590055 39.78579503 27 40 C30.83261263 39.03646571 30.83261263 39.03646571 34 37 C36.05038568 33.16954892 36.23604718 29.90297772 36.1953125 25.60546875 C36.18564453 23.80239258 36.18564453 23.80239258 36.17578125 21.96289062 C36.15902344 20.71701172 36.14226563 19.47113281 36.125 18.1875 C36.11597656 16.92228516 36.10695313 15.65707031 36.09765625 14.35351562 C36.07412394 11.23548436 36.04124545 8.11783903 36 5 C34.02 4.34 32.04 3.68 30 3 C30 2.01 30 1.02 30 0 C35.61 0 41.22 0 47 0 C47 1.32 47 2.64 47 4 C45.68 4.33 44.36 4.66 43 5 C42.96036133 5.80630859 42.92072266 6.61261719 42.87988281 7.44335938 C42.68823902 11.13012009 42.46935782 14.8147886 42.25 18.5 C42.1571875 20.40265625 42.1571875 20.40265625 42.0625 22.34375 C41.23090638 35.64924793 41.23090638 35.64924793 37 41 C33.62197681 44.03254355 31.63052787 44.91355666 27.125 45.53125 C25.7500006 45.54174618 24.37468979 45.53100804 23 45.5 C22.31421875 45.51546875 21.6284375 45.5309375 20.921875 45.546875 C17.27492648 45.5190357 14.93374127 44.96562047 11.6875 43.28125 C8.92542666 40.93669938 7.61903337 39.21078292 6 36 C5.58349609 33.34033203 5.58349609 33.34033203 5.5234375 30.5078125 C5.4925 29.47269531 5.4615625 28.43757812 5.4296875 27.37109375 C5.40261719 25.76427734 5.40261719 25.76427734 5.375 24.125 C5.16240976 14.52043068 5.16240976 14.52043068 4 5 C2.68 4.34 1.36 3.68 0 3 C0 2.01 0 1.02 0 0 Z " fill="#0093CE" transform="translate(592,683)" />
<path d="M0 0 C1.99958364 -0.04080783 4.00045254 -0.04254356 6 0 C6.34780518 1.00377686 6.69561035 2.00755371 7.05395508 3.04174805 C8.35104266 6.78038225 9.65550325 10.51640896 10.9621582 14.25170898 C11.52568407 15.86592018 12.08723247 17.48082317 12.64672852 19.09643555 C13.4532483 21.42423088 14.26694624 23.74941083 15.08203125 26.07421875 C15.32903275 26.79212082 15.57603424 27.51002289 15.83052063 28.24967957 C17.19222493 32.10934153 18.59373071 35.67076727 21 39 C23.59122743 39.88658466 23.59122743 39.88658466 26 40 C26 40.99 26 41.98 26 43 C19.73 43 13.46 43 7 43 C7 42.01 7 41.02 7 40 C8.32 40 9.64 40 11 40 C9.68 36.04 8.36 32.08 7 28 C2.71 27.67 -1.58 27.34 -6 27 C-6.66 30.96 -7.32 34.92 -8 39 C-6.68 39.33 -5.36 39.66 -4 40 C-4 40.99 -4 41.98 -4 43 C-9.61 43 -15.22 43 -21 43 C-21 42.01 -21 41.02 -21 40 C-18.03 39.505 -18.03 39.505 -15 39 C-14.62101563 37.824375 -14.24203125 36.64875 -13.8515625 35.4375 C-11.77977086 29.22455963 -9.45494457 23.1069132 -7.12890625 16.98583984 C-6.366452 14.97748399 -5.60889441 12.96732347 -4.8515625 10.95703125 C-4.3674801 9.67957658 -3.88311572 8.40222873 -3.3984375 7.125 C-2.96192871 5.97257813 -2.52541992 4.82015625 -2.07568359 3.6328125 C-1 1 -1 1 0 0 Z M0 10 C-1.32 13.96 -2.64 17.92 -4 22 C-1.03 22 1.94 22 5 22 C4.690625 20.576875 4.38125 19.15375 4.0625 17.6875 C3.88847656 16.88699219 3.71445313 16.08648438 3.53515625 15.26171875 C3.00113841 12.854599 3.00113841 12.854599 2 10 C1.34 10 0.68 10 0 10 Z " fill="#0093CE" transform="translate(149,684)" />
<path d="M0 0 C3.31232698 -0.08834684 6.62434435 -0.14083584 9.9375 -0.1875 C10.86369141 -0.21263672 11.78988281 -0.23777344 12.74414062 -0.26367188 C18.96969164 -0.32920399 24.30003254 0.38480382 30 3 C32 4.6875 32 4.6875 33 7 C34.08567843 11.73045604 34.2751389 14.08287033 32.875 18.75 C30.57344704 22.73935847 28.0960644 24.9519678 24 27 C22.45976004 27.06950541 20.91665012 27.08452357 19.375 27.0625 C18.14910156 27.04896484 18.14910156 27.04896484 16.8984375 27.03515625 C16.27195313 27.02355469 15.64546875 27.01195312 15 27 C14.67 26.01 14.34 25.02 14 24 C17.3 23.34 20.6 22.68 24 22 C25.23387491 17.06450038 25.69049115 13.07147345 24.0625 8.1875 C22.2208923 5.86924541 22.2208923 5.86924541 19.82983398 5.34887695 C19.01844971 5.18863037 18.20706543 5.02838379 17.37109375 4.86328125 C16.55439209 4.69739502 15.73769043 4.53150879 14.89624023 4.3605957 C13.95760132 4.18210083 13.95760132 4.18210083 13 4 C12.97531553 8.80549747 12.95714745 13.61095818 12.94506836 18.41650391 C12.94003379 20.05192711 12.93320573 21.6873458 12.92456055 23.32275391 C12.91245665 25.67090975 12.906763 28.01900619 12.90234375 30.3671875 C12.89718246 31.10057343 12.89202118 31.83395935 12.88670349 32.58956909 C12.816844 36.42122656 12.816844 36.42122656 14 40 C16.52733235 40.65555119 16.52733235 40.65555119 19 41 C19 41.99 19 42.98 19 44 C12.4 44 5.8 44 -1 44 C-0.67 43.01 -0.34 42.02 0 41 C1.98 40.505 1.98 40.505 4 40 C4 28.45 4 16.9 4 5 C1.525 4.01 1.525 4.01 -1 3 C-0.67 2.01 -0.34 1.02 0 0 Z " fill="#0093CE" transform="translate(189,683)" />
<path d="M0 0 C0.02712066 1.43739513 0.04645067 2.87493863 0.0625 4.3125 C0.07410156 5.11300781 0.08570313 5.91351562 0.09765625 6.73828125 C0 9 0 9 -1 12 C-1.99 12 -2.98 12 -4 12 C-4.3403125 10.329375 -4.3403125 10.329375 -4.6875 8.625 C-5.120625 7.42875 -5.55375 6.2325 -6 5 C-8.97186051 2.92870328 -11.90391016 2.84216892 -15.4375 2.6875 C-19.67010454 2.82108719 -22.52277983 3.41230127 -26 6 C-28.81093461 9.41515419 -29.84957146 12.76894196 -30.3828125 17.1328125 C-30.58769042 23.01963814 -30.427963 28.28205053 -27.31640625 33.41015625 C-24.93160128 36.2903213 -22.58109802 37.90596436 -19 39 C-15.53510079 39.57656801 -12.45519835 39.67168601 -9 39 C-5.40713359 37.06708213 -3.25619335 34.38429003 -1 31 C-0.01 31.33 0.98 31.66 2 32 C0.04054054 39.83783784 0.04054054 39.83783784 -3 43 C-6.89570887 44.29856962 -10.62530392 44.26324136 -14.6875 44.3125 C-15.46544922 44.34150391 -16.24339844 44.37050781 -17.04492188 44.40039062 C-22.83772464 44.46319833 -27.17298138 43.26136817 -32 40 C-35.40882556 36.85180133 -37.57250639 33.40715275 -39 29 C-39.72933745 22.21332307 -40.12007121 15.11514241 -37 8.875 C-33.66941745 3.90719288 -29.49811895 1.36763393 -24.01171875 -0.77734375 C-17.32499326 -2.70402736 -6.31189263 -3.15594631 0 0 Z " fill="#0093CE" transform="translate(508,684)" />
<path d="M0 0 C0.08159574 4.16138263 -0.01751476 7.9472484 -1 12 C-1.99 12 -2.98 12 -4 12 C-4.66 9.36 -5.32 6.72 -6 4 C-11.82593975 2.49653168 -17.57170257 2.22111214 -23.3125 4.0625 C-26.72123829 6.51996249 -28.55160201 9.12009451 -30 13 C-31.28438835 18.22192926 -31.27298793 22.99435468 -29.72265625 28.1484375 C-28.06378527 32.39873397 -26.08517481 35.22487514 -22.375 37.875 C-17.82705407 39.39098198 -13.74686413 39.72355885 -9 39 C-6.06956129 37.38962805 -6.06956129 37.38962805 -4 35 C-3.236875 34.2575 -2.47375 33.515 -1.6875 32.75 C-1.130625 32.1725 -0.57375 31.595 0 31 C0.75 33.0625 0.75 33.0625 1 36 C-0.03886671 38.681857 -1.33391807 40.59343721 -3 43 C-6.89570887 44.29856962 -10.62530392 44.26324136 -14.6875 44.3125 C-15.46544922 44.34150391 -16.24339844 44.37050781 -17.04492188 44.40039062 C-22.83772464 44.46319833 -27.17298138 43.26136817 -32 40 C-35.40741983 36.85309958 -37.58028157 33.40859934 -39 29 C-39.61201909 22.64496457 -40.10538118 15.42894606 -37.5625 9.4375 C-34.78714804 4.95198397 -30.65154475 2.30686366 -26 0 C-18.97935387 -2.89085429 -6.86132627 -3.43066314 0 0 Z " fill="#0093CE" transform="translate(752,684)" />
<path d="M0 0 C1.15242188 0.11085938 2.30484375 0.22171875 3.4921875 0.3359375 C4.36101562 0.43132813 5.22984375 0.52671875 6.125 0.625 C6.1520043 2.08323212 6.17139787 3.54160675 6.1875 5 C6.19910156 5.81210937 6.21070313 6.62421875 6.22265625 7.4609375 C6.125 9.625 6.125 9.625 5.125 11.625 C4.135 11.625 3.145 11.625 2.125 11.625 C1.135 9.315 0.145 7.005 -0.875 4.625 C-4.8850934 4.44635369 -4.8850934 4.44635369 -8.875 4.625 C-9.535 5.285 -10.195 5.945 -10.875 6.625 C-11.45869443 10.04038144 -11.45869443 10.04038144 -10.875 13.625 C-8.67270189 16.04752792 -6.23186311 17.41645102 -3.421875 19.05859375 C-2.54015625 19.57550781 -1.6584375 20.09242188 -0.75 20.625 C0.09820312 21.099375 0.94640625 21.57375 1.8203125 22.0625 C4.26046905 23.71684342 5.59826304 25.11542612 7.125 27.625 C8.14013329 32.12059029 8.49227219 34.50157917 7.0625 38.875 C4.7234069 42.19500311 2.67908055 43.6555677 -0.875 45.625 C-4.6015625 46.15625 -4.6015625 46.15625 -8.5 46.125 C-10.43746094 46.14046875 -10.43746094 46.14046875 -12.4140625 46.15625 C-15.875 45.625 -15.875 45.625 -18.2890625 43.890625 C-20.05256531 41.37133527 -20.44605826 39.91700953 -20.625 36.875 C-20.68171875 36.07578125 -20.7384375 35.2765625 -20.796875 34.453125 C-20.83554687 33.54820312 -20.83554687 33.54820312 -20.875 32.625 C-18.895 32.13 -18.895 32.13 -16.875 31.625 C-16.483125 32.718125 -16.09125 33.81125 -15.6875 34.9375 C-14.54149253 37.56532177 -13.82955449 38.66539601 -11.625 40.625 C-7.96965904 41.95421489 -5.60579648 41.61049341 -1.875 40.625 C-1.215 39.635 -0.555 38.645 0.125 37.625 C0.17145784 34.60503132 0.17145784 34.60503132 -0.875 31.625 C-2.9210493 29.58295388 -2.9210493 29.58295388 -5.5625 28.0625 C-6.46355469 27.47597656 -7.36460937 26.88945313 -8.29296875 26.28515625 C-9.14503906 25.73730469 -9.99710937 25.18945312 -10.875 24.625 C-13.85446055 22.49163372 -16.35210111 20.46618517 -18.3125 17.3125 C-19.10332023 13.53413668 -19.02799676 10.32357401 -17.875 6.625 C-15.51524406 3.52360649 -13.71382842 1.97819091 -10.12890625 0.46875 C-6.48737698 -0.47551209 -3.73095707 -0.38070991 0 0 Z " fill="#0093CE" transform="translate(356.875,682.375)" />
<path d="M0 0 C13.53 0 27.06 0 41 0 C40 11 40 11 39 13 C38.01 13 37.02 13 36 13 C35.34 10.69 34.68 8.38 34 6 C28.555 5.505 28.555 5.505 23 5 C23.11829766 9.50253816 23.24254934 14.00485779 23.37231445 18.50708008 C23.41561833 20.03861018 23.45729667 21.57018715 23.49731445 23.10180664 C23.55512732 25.30369182 23.61878969 27.50534211 23.68359375 29.70703125 C23.70030624 30.39150833 23.71701874 31.07598541 23.73423767 31.78120422 C23.8273555 34.77120104 24.04687437 37.14062311 25 40 C26.98 40.33 28.96 40.66 31 41 C31 41.99 31 42.98 31 44 C23.41 44 15.82 44 8 44 C8 43.01 8 42.02 8 41 C10.31 40.34 12.62 39.68 15 39 C15.33 27.45 15.66 15.9 16 4 C12.7 4.66 9.4 5.32 6 6 C3.30019944 9.42614386 3.30019944 9.42614386 2 13 C1.01 13 0.02 13 -1 13 C-0.67 8.71 -0.34 4.42 0 0 Z " fill="#0093CE" transform="translate(382,683)" />
<path d="M0 0 C13.2 0 26.4 0 40 0 C39.67 4.29 39.34 8.58 39 13 C37.68 12.67 36.36 12.34 35 12 C34.505 8.535 34.505 8.535 34 5 C30.37 5 26.74 5 23 5 C23 16.55 23 28.1 23 40 C26.465 40.495 26.465 40.495 30 41 C30 41.99 30 42.98 30 44 C22.74 44 15.48 44 8 44 C8 43.01 8 42.02 8 41 C10.97 40.505 10.97 40.505 14 40 C14.74734361 35.34785065 15.11936092 30.90132058 15.09765625 26.19140625 C15.09443359 24.95068359 15.09121094 23.70996094 15.08789062 22.43164062 C15.07951172 21.15482422 15.07113281 19.87800781 15.0625 18.5625 C15.05798828 17.25861328 15.05347656 15.95472656 15.04882812 14.61132812 C15.03709251 11.40750448 15.02067363 8.20377637 15 5 C13.71867188 4.97550781 12.43734375 4.95101562 11.1171875 4.92578125 C10.39644043 4.91200439 9.67569336 4.89822754 8.93310547 4.8840332 C6.90343885 4.84945528 6.90343885 4.84945528 5.125 6.1875 C3.76860001 8.3728111 2.8515081 10.57647695 2 13 C0.68 12.67 -0.64 12.34 -2 12 C-1.34 8.04 -0.68 4.08 0 0 Z " fill="#0093CE" transform="translate(242,683)" />
<path d="M0 0 C6.27 0 12.54 0 19 0 C18.67 1.32 18.34 2.64 18 4 C16.68 4 15.36 4 14 4 C13.97527961 8.64477144 13.95713032 13.28950457 13.94506836 17.93432617 C13.94003986 19.51441108 13.93321622 21.09449134 13.92456055 22.67456055 C13.91243008 24.94581246 13.90675687 27.21700285 13.90234375 29.48828125 C13.89718246 30.19463211 13.89202118 30.90098297 13.88670349 31.6287384 C13.88635197 34.70254391 14.0196814 37.0590442 15 40 C16.65 40.33 18.3 40.66 20 41 C20 41.99 20 42.98 20 44 C13.4 44 6.8 44 0 44 C0 43.01 0 42.02 0 41 C2.475 40.505 2.475 40.505 5 40 C5 28.45 5 16.9 5 5 C2.525 4.01 2.525 4.01 0 3 C0 2.01 0 1.02 0 0 Z " fill="#0093CE" transform="translate(299,683)" />
<path d="M0 0 C0 3 0 3 0 3 Z " fill="#009CC9" transform="translate(276,109)" />
</svg>
